/* XPM */
static char *ec666f3a69b840558e66055423bfe117Xib6HPbeeexGXPck[] = {
/* columns rows colors chars-per-pixel */
"64 64 238 2 ",
"   c #000001",
".  c #231A1B",
"X  c #463927",
"o  c #53110E",
"O  c #687035",
"+  c #3F5568",
"@  c #49464E",
"#  c #4D504B",
"$  c #52765B",
"%  c #66725E",
"&  c #665E7D",
"*  c #5A667C",
"=  c #526E6B",
"-  c #626668",
";  c #696679",
":  c #6C7368",
">  c #971B0E",
",  c #AF3517",
"<  c #997635",
"1  c #EC7D3A",
"2  c #8C7251",
"3  c #36A53F",
"4  c #719537",
"5  c #5FB43F",
"6  c #4BAA3C",
"7  c #78AB38",
"8  c #6DBA3E",
"9  c #68B73C",
"0  c #7CB33A",
"q  c #74BD3E",
"w  c #7BBE3E",
"e  c #7CB637",
"r  c #7EBF28",
"t  c #74C13E",
"y  c #7DC23D",
"u  c #7EC437",
"i  c #7FC02B",
"p  c #6E894E",
"a  c #729448",
"s  c #6D9358",
"d  c #55B643",
"f  c #73A54B",
"g  c #78AC46",
"h  c #6DBB41",
"j  c #67B941",
"k  c #72BD41",
"l  c #79BE42",
"z  c #7CB141",
"x  c #6FA159",
"c  c #72A454",
"v  c #689966",
"b  c #649578",
"n  c #7CC340",
"m  c #75C143",
"M  c #6DC143",
"N  c #8F9637",
"B  c #A19B37",
"V  c #88B92C",
"C  c #8BAD38",
"Z  c #97AC38",
"A  c #83B73A",
"S  c #84BC3B",
"D  c #8ABC3B",
"F  c #87B837",
"G  c #9CB337",
"H  c #A8A82F",
"J  c #A6AB35",
"K  c #B9A934",
"L  c #A7B235",
"P  c #B9B230",
"I  c #F4B910",
"U  c #C79535",
"Y  c #F8903B",
"T  c #CBB42E",
"R  c #D8B82D",
"E  c #CAA334",
"W  c #D8AB34",
"Q  c #CBB532",
"!  c #D7B633",
"~  c #E6BA2E",
"^  c #E8BA35",
"/  c #F3B733",
"(  c #82C22E",
")  c #86C335",
"_  c #8AC436",
"`  c #8EC936",
"'  c #85C43D",
"]  c #8BC63E",
"[  c #8DC93D",
"{  c #87C93C",
"}  c #92C63C",
"|  c #92C93E",
" . c #99C937",
".. c #8FD23B",
"X. c #97CD2E",
"o. c #ABC52B",
"O. c #B4CA2A",
"+. c #A5CB37",
"@. c #A6D13B",
"#. c #B8D33A",
"$. c #B4D02B",
"%. c #C6D01E",
"&. c #D6CB19",
"*. c #FECA1C",
"=. c #F6C50F",
"-. c #C4C625",
";. c #C6D428",
":. c #CBD83A",
">. c #D3D12C",
",. c #FFCC24",
"<. c #F4C32D",
"1. c #FDC72B",
"2. c #FECC2B",
"3. c #F5C222",
"4. c #FFD02B",
"5. c #FFD021",
"6. c #F7C735",
"7. c #E7D034",
"8. c #D8E03C",
"9. c #ECE03B",
"0. c #B58E5A",
"q. c #8BB350",
"w. c #A9A15A",
"e. c #849E63",
"r. c #9AB171",
"t. c #BEA672",
"y. c #A68F64",
"u. c #CA9754",
"i. c #F49D40",
"p. c #DCBD58",
"a. c #C4B144",
"s. c #D4BF7B",
"d. c #D7AB5D",
"f. c #84C541",
"g. c #8CC641",
"h. c #8DC840",
"j. c #85CA40",
"k. c #91C746",
"l. c #91CA41",
"z. c #93C94C",
"x. c #95C74A",
"c. c #95CA51",
"v. c #99CB54",
"b. c #9BCB5A",
"n. c #9DD05D",
"m. c #A0CF5F",
"M. c #ADCE4A",
"N. c #9ECF65",
"B. c #A2CE64",
"V. c #A6D26A",
"C. c #A7D269",
"Z. c #ADD478",
"A. c #AED178",
"S. c #DEC15E",
"D. c #EBC643",
"F. c #DDC777",
"G. c #E5C777",
"H. c #546F8E",
"J. c #6A6483",
"K. c #6D6A83",
"L. c #726B83",
"P. c #527DA4",
"I. c #507BB1",
"U. c #5A8A9B",
"Y. c #578189",
"T. c #6A9684",
"R. c #5582AC",
"E. c #5784AB",
"W. c #5486B3",
"Q. c #598AB4",
"!. c #548ABC",
"~. c #598CBB",
"^. c #5687B7",
"/. c #5C92BE",
"(. c #7495B1",
"). c #6F90AC",
"_. c #598DC4",
"`. c #598EC9",
"'. c #5D94C2",
"]. c #5C93CB",
"[. c #5690C2",
"{. c #6096C4",
"}. c #B59F85",
"|. c #95A585",
" X c #ACB490",
".X c #BABABB",
"XX c #A8AAA8",
"oX c #8EA5B8",
"OX c #DEAF95",
"+X c #B5D984",
"@X c #BEDD92",
"#X c #B6D991",
"$X c #A8C799",
"%X c #BEE095",
"&X c #C5DB96",
"*X c #D4CA91",
"=X c #E8D296",
"-X c #C2E29D",
";X c #C8C7A4",
":X c #DDD3AE",
">X c #D4CDB5",
",X c #D3D1B8",
"<X c #E2D8BA",
"1X c #CAE1A3",
"2X c #CAE5A9",
"3X c #D5EBBA",
"4X c #DAE6B9",
"5X c #D2E4AC",
"6X c #E6EABA",
"7X c #E9B9C6",
"8X c #B6C1CD",
"9X c #CBD1D8",
"0X c #DADBDB",
"qX c #D6D6D6",
"wX c #D1D0CA",
"eX c #EDD0CA",
"rX c #DDECC4",
"tX c #DEE3DA",
"yX c #E7E8C9",
"uX c #F9E7C2",
"iX c #E4E5DB",
"pX c #E8F5D9",
"aX c #F6F5DB",
"sX c #ECEAD5",
"dX c #DDDFE0",
"fX c #FFD9E5",
"gX c #DCE2E6",
"hX c #E3E3E3",
"jX c #EDEDEC",
"kX c #E6E5E7",
"lX c #EDF8E4",
"zX c #F5F3E6",
"xX c #EFF1F9",
"cX c #F3F3F3",
"vX c #FCFCF6",
"bX c #FEFFFE",
"nX c #F7F8F7",
"mX c #FBECE9",
/* pixels */
"] ] ] ] ] ] g.} :.:.n [ g.] ] ] ] ] ] ] ] ] ' g.] ] ] ] ] ] ] ] ] ] ] ] ] ] ] ] ] ] ] ] ] ] ] ] ] ] ] ] ] ] ] ] ] ] ] g.] [ g.] ",
"] ] ] ] ] ] ] :.i.7.@.' ] ] ] ] ] ] ] ] ] ] ] ] ] ] ] ] ] ' q ] ] ] ] ] ] ] ] ] ] ] ] ] ] ] ] ] ] ] ] ] ] ] ] ] ] ] ] ] ] ] ] ] ",
"] ] ] ] ] ] _ 7.Y D.@.j.[ ] ] ] ] ] ] ] ] ] ] ] ] ] ] ] ] ' ] ] [ ] ] ] g.] ] ] { g.] ] ] ] ] ] ] ] ] ] ] ] ] ] ] ] ] ] ] g.] ] ",
"] ] ] ] ] _ v.M.;.D.{ ..] ] ] ] ] ] ] g.] ] ] ] ] ] ] ] ] ] ] ] ] ] ] ] y 9 } { n g.] ] g.] ] ] ] ] ] ] ] ] ] ] ] ] ] ] ] ] ] { ",
"] ] ] g.) @XmX5X_ ] g.] ] ] ] ] ] ] ] { ] ] ] ] ] ] f.] ] ] ] ] ] ] ] ] ] ] ] ] l.w 9 | ] ] ] ] ] g.g.g.] ] ] ] ] ] [ { ] ] ] ] ",
"] ] ] g.) 3XfX4X] ] ] ] ] ] ] ] ] ] ] ] ] ] ] ] ] ] D ] ] ] ] ] ] ] ] ] ] ] ] ] ] n l ] ] ] ] ] { ) ) g.] ] ] ] ] [ ] ` ] ] ] ] ",
"] ] ] g.{ v.@Xc._ g.] ] ] ] ] { ] ] ] ] ] g.] ] ] ] q d g.] ] ] ] { ] ] ] ] ] ] ] ] h.] ] ] ] ] g.+XN.) g.g.] ] ] { 3 q.g.{ ] ] ",
"] ] ] ] ] _ ) ] | l q ] ] ] ] g.] ] ] ] ] ] ] ] ] g.g.6 8 f.] ] ] g.] ] ] ] ] ] ] ] ] ] ] ] g.) +XfXyXg.] g.] g.] h.d j h ' ] ] ",
"] ] ] ] ] ] g.g.] f.{ ] g.' n ] ] ] ] ] ] ] g.{ ] ] ] | ' f.] ] ] ] ] ] ] ] ] ] ] g.] ] ] ] g._ v.rX1X[ x.pXn._ g.] | l.n ] ] ] ",
"] ] ] ] ] ] ] ] ] ] ] ] g.] n ] ] ] ] ] ] ] ] ] ] ] ] ] ] ] ] ] ] ] ] ] ] ] ] ] ] ] ] ] ] ] ] ] ) { ] rX4XnXB._ ] ] ] f.g.] ] ] ",
"g.] ] ] ] ] ] ] ] ] ] ] ] ] } ] | ] ] ] ] h.] ] ] ] ] ] ] ] ] ] ] ] ] ] ] ] ] ] ] ] ] ] ] ] ] ] g.k._ 1XmX=XnX@XD | y q ] g.] ] ",
"] g.] ] ] ] ] ] ] ] ] ] ] ] ] g.y ] ] f.' y [ [ ] g.g.] ] ] g.g.g.] ] ] ] ] ] ] ] ] ] ] ] ] ] ] ] ] ] 3XaXsX@Xk.] ] ' ] ] ] ] ] ",
"] ) ] ] g.] ] ] ] ] ] ] ] ] g.y 8 _ S G Q P Z S { ) ( [ ] { ] ` ) g.] ] ] 8 ] ] ] ] ] ] ] ] ] ] ] ] ] +Xc.3X2X( h.] g.] ] ] ] ] ",
"c.1X1Xb.) ] ] ] ] ] ] ] ] ] g.f.F e J 1.2.2.2.Q H r.A._ { v.x.z.B.] g.] ] q f.] ] ] ] ] ] ] ] ] ] ] ] ) ) c.m._ g.] ] ] ] ] ] ] ",
"g.rXmXC.{ ] ] ] ] ] ] ] ] ] ] ] 7 C <.2.2.2.2.*.F.bXbX XV +XlX4XrX) g.g.} t d g.] ] ] ] ] ] ] ] ] ] ] ] g._ _ ] ] ] ] ] ] ] ] ] ",
"] v.Z.] [ ] ] ] ] ] ] ] ] ] ] D 7 J 2.2.2.2.1.~ >XbXnXwXA C iXuXpXB._ g.] y f.g.] ] ] ] ] ] ] ] ] ] ] ] ] g.g.] ] ] ] ] ] ] ] ] ",
"] ] _ ] ] ] ] ] g.g.] ] ] ] ] D 0 T 2.2.2.,.S.iXjX0XwX6.K 0.w.lX@X_ l.] ] ] g.g.] ' ] g.] ] ] f.] ] ] ] ] ] ] g.] ] ] ] ] ] ] ] ",
"] ] ] ] ] ] ] ] { ] ] ] ] ] ] ] 7 R ,.2.2.3.<XbXbXdX! ,.u.u.N n.c.] ] ] ] ] ] ] D K G w ] ] ] n g.] ] ] ] ] ] h.] g.] ] ] ] ] ] ",
"] ] ] ] ] ] ] } 8 y | ] ] ] ] g.S P 4.2.4./ yXhXcXzX<.u.u.0.q._ _ g.] ] ] ] g.j.l R ~ K D g.] { ] g.] ] ] g.g.9 ] ] ] ] ] ] ] ] ",
"] ] ] ] ] ] ] ] ] ] ] ` ] ] ] ] #.Q <.4.2.,.p.kXcXOXK u.t.}.l j g.] ] ] ] ] f.L Z P 2.B y [ [ ] ] ] ] ] ] ] ] n g.] ] ] ] ] ] ] ",
"] ] ] ] ] ] g.] ] ] h.c.g.] ] ] 9.1 U <.4.1.3.D.D.E u.}.r.g.] _ ] ] ] ] ] ] ' J E 1.2.R L L D g.] ] ] ] ] ] m { ] ] ] ] ] ] ] ] ",
"[ ] ] ] ] ] y t h.) B.yX+X) g.{ @.6.9.G R W ! 3.2.u.}.@ 4 ..] ] ] ] ] ] ] ] l.' J 2.2.4.1.T S g.] ] g.g.g.] m ' ] ] g.] ] ] ] ] ",
"] ] ] ] ] ] f.f.g.) @XuX&X] ] ] k.+.+.h.e N E ^ 1.2 .   O q.{ ] h.] ] ] ] ] q k R 2.2.2.J S ] ] ] ] ] ) @.8. .f.x.l.) g.] ] ] ] ",
"] ] ] ] ] ] ] ] g.[ h.B.y ] ] ] ] ] ' ] S 7 B E 6.X   . > < 7 e _ h.] ] ] } l C 2.2.2.R w l.] ] ] ] ] #.6.i.9.) V.yXB.{ g.] ] ] ",
"] ] ] ] ] ] ] ] ] ] ] ) f.[ ] ] ] ] ] ] ] ] G K ^ <   > > X y. Xb.r A A ` q Z <.2.2.2.L { ] ] ] ] ] ] +.^ Y $.+XaXaX@X) ] ] ] ] ",
"] ] ] ] ] ] ] ] ] ] g.g.] ] ] ] ] A D l.l.] ] w L / X o , 2 0.wXwXr.iXtXq.P 1.2.2.4.~ D ] ] ] ] ] ] ] ] #.:.:.k.5X1XA.{ ] ] ] ] ",
"] ] ] ] ] ] ] ] ] ] ] ] ] ] ] ] S Q L j ] j.] l.y R 6.< }.wX:X X.XhXbXbXqX/ 2.2.2.2.P ' ] ] ] ] ] ] ] ] g.f.] _ g._ ) g.] ] ] ] ",
"] ] ] ] | w q | ] ] ] ] ] ] k { w Q R 8 n h } ] ' P ^ ,XbXjXcXbXbXgXqXbXvXp.,.2.2.~ A g.] ] ] ] ] ] ] ] ] ] ] g.[ g.g.] ] ] ] ] ",
"] ] ] ] [ ' y g.] ] ] ] ] ] 0 C P ~ E C h.g.l.h.) q.kXbXbX0XkXbXbXbXjXqXbX=X*.2.1.J j.] ] ] ] ] ] ] ] ] ] ] ] ] ] ] ] ] ] ] ] ] ",
"] ] ] ] ] ] ] ] ] g.] ] [ S ~ W / E ~ ~ D h.] _ D $XxXcXqXhXbXbXbXbXbXjX9X;XI ,.L ' l.g.] ] ] ] ] ] ] ] ] ] g.q ' ] ] ] ] ] ] ] ",
"] ] ] ] ] ] { ] ] ] ] ] f.] C K ! E ! ~ C u q.XX0XnXdX.XcXbXbXbXbXbXbXbXkXdXwXd.V n l l.g.{ ] ] ] ] ] ] ] ' n n f.] ] g.] ] ] ] ",
"] ] ] ] ] ] ] ] ] ] ] ] ] ] j.L / 2.2.6.~ T a.p.F.bXbXcXdXbXbXbXbXbXbXbXbXbXbXnX*X6 y ` ` ` g.] ] ] ] ] ] ] ] } ] ] ] { ] ] ] ] ",
"] ] ] ] ] ] g.{ ] ] ] ] g.f.n ] H 1.2.2.4.2.,.4.~ iXbXbX0XnXbXbXbXbXbXbXbXbXvXbXbX|.v b b x S ` g.g.] { ] y ' | ] ] ] ] ] ] ] ] ",
"] ] ] ] ] ] ] ] ] ] ] ] } h 9 l.0 T 4.2.2.2.2.4.3.:XbXbXdXnXbXbXbXbXbXbXbXbXbX0X(.~.`.`.`.[.U.f ` g.] g.] l l ] ] ] ] ] ] ] ] ] ",
"v.] g.] ] ] ] ] ] ] ] g.] ' g.) m.*X~ 2.2.2.2.2.*.*XbXbXqXbXbXbXbXbXbXbXbXbX9XR.~.'.{./.'.'.].W.g [ ] ] ] ] ] ] ] ] ] ] ] ] ] ] ",
"@X) g.] ] ] ] ] ] ] ] ] ' y ] ) 4XeX:XR 2.2.2.4.=.G.bX0XjXbXbXbXbXbXbXbXbXdXR.'.{.{././.'.'./.].U.S g.] ] ] ] ] ] ] ] ] ] ] ] ] ",
"v.] ] ] ] ] ] ] ] ] ] ] ] g.g.) #XcX-XA L Q ~ ~ ^ OXdXhXbXbXbXbXbXbXbXbXvX(.[.'.'.'.'._.'.{.{./.~.c ` g.] ] ] ] ] ] ] ] { ] ] ] ",
"_ g.] ] ] ] ] ] ] ] ] ] ] ] g. .$.M.F g.j.S D A q.e.tXbXbXbXbXbXbXbXbXbX8X^.'.'.'.'.'.'.'./.{.{.[.b ` g.] ] ] ] ] ] ] ] g.] ] ] ",
"g.] ] ] ] ] ] g.] ] ] ] ] ]  .&.I %.g.[ ] ] ] ] { w iXbXbXbXbXbXbXbXbXnX(.[.'.'.'.'.'.{.'.'././.].T._ ] ] ] ] g.] ] ] ] ] ] ] ] ",
"] ] ] ] ] ] ] ] ] ] ] ] ] ] } %.=.O.f.{ ' ] ] { 7 4 ,XbXbXbXbXbXbXbXbX9X^.{.'.'.'.'.~.~.'./.{.{.].b _ g.] ] ] { ] ] ] ] ] ] ] ] ",
"] ] ] ] { ] ] g.] ] ] ] g.] f.+.%. .g.f.d ] ] ) # @ XXbXnXbXbXbXbXbXbXoX!.'.'.'.'.{.R.~.{.{._./.].b ` g.] ] ] ] { g.] ] ] ] ] ] ",
"] ] ] ] ] ] ] ] ] ] ] ] ] ] ] ] ] g.] ] k ] g.S - @ : bXbXbXbXbXnX9X(.R.'.'.'./.].Q.$ /.{.{././._.x ` ] ] ] ] ] ] ] ] } ] ] g.] ",
"] ] ] ] ] ] ] g.] ] ] ] ] ] ] ] ] ] ] ] ] ] g._ : ; @ .XdX9X8XoX).W.[.'.'.'.'.'.!.f b I.Q./.{.{.~.z [ { ] ] ] ] ] ] ] 8 ] ] ] ] ",
"] ] ] ] ] ] n S ] ] ] ] ] ] ] ] ] ] ] ] ] ] g.[ p J.; @ + !.!.!.[.'.'.'.'.'.].Q.x V H.'.Q.I.E.I.Y.) g.] ] ] ] ] ] g.] k ] ] ] ] ",
"] ] ] ] ] ] h y } ] g.] ] g.] ] ] ] ] ] ] ] ] h.A - K.L.- H.E.'.].'.'.{.'.'.U.f X.p & H.E.~.~.I.s ` g.] ] ] ] ] ] y ' | ] ] ] ] ",
"] ] ] ] ' n M h.g.] ' y g.{ ] ] ] g.] ] ] ] ] ] l.7 - ; * H.H.P.R.W.W.E.P.P.7 [ { a J.; - * H.= w h.] ] ] ] ] ] ] l y ' m ] ] ] ",
"g.] ] ] j.' g.] ] } 8 j } g.] ] ' f.] ] ] ] ] ] g.| q.H.~.~.R././.Q.^.Q._.U._ g.[ A # J.K.; L.$ t g.] ] ] ] ] ] ] ] | n ' ] ] ] ",
"] ] ] ] ] } ] ] ] ] g.] ] ] ] ] { [ ] ] ] ] ] ] ] ] $X~.P.E.P.'.'.'.'.{.].T.9 g.] ..7 ; K.; K.p [ g.] ] ] ] ] [ ] ] ] ] ] ] ] ] ",
"] ] ] ] ] ] ] ] ] ] g.g.] ] ] ] ] ] ] ] ] ] ] _ b.pX;XP.'./.R.'.'.'.'.'.'.v w ] { [ A ; K.K.J.a ` ] ] ] ] ] ] ] ] ] ] ] g.] ] ] ",
"] ] ] ] ] ] ] ] ] ] { ] ] ] ] ] ] ] ] ] ] ] ] w f.3XsX).'.~./.'.'.'.'.'.Q.0 | ] ] [ ` % K.; & z [ ] ] ] ] ] ] ] ] ] ] ] ] ] ] ] ",
"] ] ] ] ] ] ] ] ] ] ] ] ] ] ] ] ] ] ] ] g.] ] l ( Z.vXT._./.'.'.'./.'.].T.) g.] ] ] | a J.K.% _ ] ] ] ] g.' w ] ] ] ] ] ] ] g. .",
"] ] ] ] ] ] ] ] ] ] ] ] ] ] ] ] ] ] ] ] l.9 ' l.` C.C.C Q.]./.'.{.~.'.~.f ` ] ] ] ] ] S % - 0 ] ] ] g.{ n ' n ] ] ] ] ] ] ] f.o.",
"] ] ] ] ] ] ] ] ] ] ] ] y w g.] ] ] ] ] ] g.g._ ] _ { ` x !.].'.'.'.`.v ` ] ] ] ] ] ] ] ) S ] ] ] ] ] ] { g.g.] ] ] ] ] ] ] g.] ",
"] ] ] ] ] ] ] ] ] g.] } y 5 | ] ] ] ] ] ] ] g.] ] g.g.g.] f U.~._.Q.b _ g.] g.f.' ] ] ] g.] ] [ ] ] ] ] ] ] ] g.] ] ] ] ] ] ] ] ",
"g.] ] ] ] ] ] ] ] ] ] ] f.{ q y ] ] ] ] ] ] ] ] ] ] ] ] ] } D g c 0 ` ] g.] ' 8 l } ] ] ] ] ] { q g.] ] ] g.] ] ] ] ] ] ] ] ] ] ",
"_ { ] ] ] ] ] ] } f.q l.y q f.] ] ] ] ] ] ] ] ] ] ] ] ] ] ] [ ` | ] ] ] ] g.{ ] g.] ] ] ] ] g.] y ' ] ] ] ) x.] _ g.] ] ] ] ] ] ",
"C.b.z.g.] ] ] ] ] ) q ] ] ] ] ] ] ] ] ] g.] ] ] ] ] ] ] ] ] ] ] ] ] ] _ ] n g.] ] [ ] ] ] ] ] ] ] ] ] ] _ +XvXsXb._ g.] ] ] ] ] ",
"5XaX@X) g.] ] ] v.b.) g.] l.] ] ] ] ] ] ] ] ] ] ] ] g.] ] ] ] ] ] ] [ { | m n ] ] ] ] ] ] ] ] ] ] ] ] ] k.zXeXcX-X) ] ] ] ] ] ] ",
"C.yXA._ [ ] | r V.lX@Xg.] ] ] ] ] ] ] ] ] { ] f.8 ] ] ] ] ] ] ] ] ] ] q.g.h.] ] ] ] ] ] ] ] ] ] ] ] ] ] g.lXOXfX2XS { ' ] ] ] ] ",
") z.{ ] ] g.] -XyX7XrX_ ] ] ] ] ] ] ] ] ] ] ] g.n ] ] ] ] ] ] ] ] ]  .&.-._ ] ] ] ] ] ] ] ] ] ] ] ] ] g.) A.vXnX+XX.;.+.] ] ] ] ",
"g.{ g.] ] ] _ +XzXyXrXx.] ] ] ] ] ] ] ] ] ] ] ] } g.] ] ] ] ] ] g.f.o.6.1.o.f.] ] ] ] ] ] ] ] ] w w ] ] l._ v.c.+.&.I %.f.] ] ] ",
"[ [ ] ] g._ &XZ.A.B.g.g.] ] ] ] ] ] ] ] ] ] ] ] ] ] ] ] ] ] ] ] ] _ O.3.O. .g.] ] ] ] ] ] ] ] ] f.{ ] ] ] ] _ ] ] %.=.O.f.] ] ] ",
"] ] ] g.] z.6X5X' ) ] } ] ] ] ] ] ] ] ] ] ] y 8 ] ] ] ] ] ] ] ] ] ] f.} ] g.] ] ] ] ] ] ] ] ] ] g.] ] ] ] ] ] ] { +.O.} ] ] ] ] ",
"] ] ] ] ] ] b.g.] { ] ] ] ] ] ] ] ] ] ] ] ] ] ] ] ] ] ] ] ] g.] ] ] ] ] ] ] ] ] ] ] } ] ] ] ] ] ] ] ] ] ] ] ] ] ] _ f.g.] g.] ] "
};
