/* XPM */
static char *_03aa1ec5b82496293bdb0222e9b936dz70u0HY3z4DcKZEa[] = {
/* columns rows colors chars-per-pixel */
"64 64 256 2 ",
"   c #7F3C29",
".  c #7C492E",
"X  c #196A76",
"o  c #346367",
"O  c #505856",
"+  c #795A58",
"@  c #6A5B51",
"#  c #586356",
"$  c #666559",
"%  c #716551",
"&  c #5A5A63",
"*  c #4B5E6B",
"=  c #635962",
"-  c #5A6667",
";  c #56767B",
":  c #4E6F6F",
">  c #696764",
",  c #756865",
"<  c #727272",
"1  c #993918",
"2  c #883B1A",
"3  c #A7361A",
"4  c #96382B",
"5  c #AC392A",
"6  c #92461C",
"7  c #8E461E",
"8  c #8B452B",
"9  c #93472D",
"0  c #8C4534",
"q  c #984736",
"w  c #9C5D3B",
"e  c #A9482B",
"r  c #B7492B",
"t  c #B5562C",
"y  c #AA4B36",
"u  c #B34D33",
"i  c #B84B37",
"p  c #AB5339",
"a  c #BD5434",
"s  c #BC553D",
"d  c #B45B3C",
"f  c #BA5B3B",
"g  c #B65736",
"h  c #AA542F",
"j  c #B96239",
"k  c #B8612F",
"l  c #B4441E",
"z  c #C7562D",
"x  c #CA4D3B",
"c  c #D34E39",
"v  c #C35534",
"b  c #CB5334",
"n  c #C35933",
"m  c #C4533B",
"M  c #CB533B",
"N  c #C85A3A",
"B  c #D45237",
"V  c #C44C2B",
"C  c #C96339",
"Z  c #9D4A44",
"A  c #975347",
"S  c #8C5B5C",
"D  c #885957",
"F  c #94555B",
"G  c #9C565E",
"H  c #945B5C",
"J  c #9C5A5E",
"K  c #9A5854",
"L  c #8E5252",
"P  c #AC5745",
"I  c #B45A43",
"U  c #BA5A42",
"Y  c #B95847",
"T  c #A54F5C",
"R  c #A3545D",
"E  c #A15A5E",
"W  c #A75A57",
"Q  c #B3514A",
"!  c #8B655B",
"~  c #94655D",
"^  c #9A6258",
"/  c #9B6443",
"(  c #AC6449",
")  c #B56349",
"_  c #AD6554",
"`  c #A9645B",
"'  c #B16454",
"]  c #B56758",
"[  c #B9784E",
"{  c #9C5662",
"}  c #955B63",
"|  c #9E5961",
" . c #975966",
".. c #905362",
"X. c #A35562",
"o. c #A35D65",
"O. c #AA5C65",
"+. c #A45D6A",
"@. c #AA5C69",
"#. c #A75768",
"$. c #B35E63",
"%. c #896766",
"&. c #936364",
"*. c #9C6264",
"=. c #926669",
"-. c #98676B",
";. c #8A7173",
":. c #A36265",
">. c #A96264",
",. c #A66169",
"<. c #A8626A",
"1. c #A56968",
"2. c #A96D73",
"3. c #C35443",
"4. c #C65643",
"5. c #D55441",
"6. c #C4584D",
"7. c #C36244",
"8. c #E57F54",
"9. c #D17D72",
"0. c #3FA87F",
"q. c #518D76",
"w. c #648A72",
"e. c #698878",
"r. c #79887A",
"t. c #4AA67F",
"y. c #54A47F",
"u. c #B7867A",
"i. c #898272",
"p. c #D78674",
"a. c #CC896F",
"s. c #E69469",
"d. c #317685",
"f. c #4F7B8A",
"g. c #6E7B89",
"h. c #9C7B84",
"j. c #3C9D85",
"k. c #399D86",
"l. c #3D8582",
"z. c #35A484",
"x. c #3CA584",
"c. c #3DAA82",
"v. c #3BA68A",
"b. c #379BB2",
"n. c #5B848A",
"m. c #449E87",
"M. c #5C979C",
"N. c #4E8592",
"B. c #68888B",
"V. c #778A8B",
"C. c #688B97",
"Z. c #788697",
"A. c #779698",
"S. c #6D9492",
"D. c #44A584",
"F. c #43AA82",
"G. c #4CAC85",
"H. c #47A789",
"J. c #52A581",
"K. c #53AB8C",
"L. c #58A889",
"P. c #4DB28C",
"I. c #47B48B",
"U. c #54B38E",
"Y. c #4DAC96",
"T. c #53AD94",
"R. c #55AB96",
"E. c #4BB293",
"W. c #47B494",
"Q. c #52B593",
"!. c #6BBB9B",
"~. c #76B69B",
"^. c #6FA792",
"/. c #4F97A4",
"(. c #7194A7",
"). c #59AFB8",
"_. c #68AAB6",
"`. c #75A8B7",
"'. c #74B4BA",
"]. c #6CAEB2",
"[. c #55B0D0",
"{. c #68A6C9",
"}. c #67B7C7",
"|. c #76B2C4",
" X c #68ABD1",
".X c #70B3CF",
"XX c #5BBBE3",
"oX c #5CC4C3",
"OX c #9A8787",
"+X c #869899",
"@X c #8A8C8C",
"#X c #BB948A",
"$X c #BD9696",
"%X c #B88B8E",
"&X c #8598A9",
"*X c #8D98B1",
"=X c #BB9DA7",
"-X c #B29FAE",
";X c #9BAAAC",
":X c #88B5AC",
">X c #97AAB4",
",X c #8AB6B4",
"<X c #94B1B1",
"1X c #A8A3AD",
"2X c #B3ACAF",
"3X c #BBB59F",
"4X c #C68F8A",
"5X c #C5948A",
"6X c #C48E92",
"7X c #C49393",
"8X c #C79699",
"9X c #D19393",
"0X c #C797A3",
"qX c #CC97AA",
"wX c #CCA4AC",
"eX c #C8A9AA",
"rX c #C7B4A8",
"tX c #CEB0B3",
"yX c #E6BEB8",
"uX c #DCC4BC",
"iX c #D6C9B9",
"pX c #D5CDB6",
"aX c #E5C6B4",
"sX c #E8C8B9",
"dX c #FFCDBD",
"fX c #F6CAB9",
"gX c #EDD1BE",
"hX c #FED2BD",
"jX c #FCD8B8",
"kX c #FACCAC",
"lX c #E8E0BC",
"zX c #BCB5C5",
"xX c #CFBDC7",
"cX c #E4BECB",
"vX c #BDC0C9",
"bX c #DDCBC2",
"nX c #D7C4C5",
"mX c #D8CCCC",
"MX c #E9C8C3",
"NX c #F7CCC3",
"BX c #EAD8C7",
"VX c #FFD3C3",
"CX c #F8D6C8",
"ZX c #FCD8D6",
"AX c #E6D6D5",
"SX c #FFE4DB",
"DX c #FDE5D6",
"FX c #F1E7D3",
"GX c #FFE4E3",
"HX c #FFEDE3",
"JX c #FFECEA",
"KX c #FFE4E8",
"LX c #FFF1E2",
"PX c #FFF2E9",
"IX c #FBE9EE",
"UX c #F0DBE2",
/* pixels */
"o.o.o.| o.o.| o.o.o.o.o.E o.o.| |  .=.=. .+.<.@.+.| *.o.O.W o.E o.O.O.#.#.#.#.O.+.<.+.E O.` | *.| | +.o.o.o.o.o.o.| o.o.o.o.o.E ",
",.,.,.+.<.o.+.,.,.o.,.<.+.,.,.,.@.o.-.,.:.,.@.X.+.*.o.o.o.#.o.o.o.o.o.o.@.@.@.@. .+.+.+.<.+. .+.,.,.,.,.,.<.o.,.,.,.,.,.o.,.,.+.",
"| o.o.E o.o.| o.o.o.G o.X.o.o.E #.O.o.X.#.#.#.#.+.:.+. .+.+.*. .*.~ *.*.*.| o.+.+.+.+.+.#.#.#. .| | | o.o.G | G o.o.G o.o.o.o.G ",
"G G G G G G G | G G G G G G G G X.X.G T G | | | } }  . .} }  .} ~ H H H ~ H } }  . . .{ { {  .#.| G | | G o.G G G G G G G | G G ",
"<.,.<.,.<.,.<.,.,.<.,.,.,.,.,.,.} 1.,.} &.&.! %.&.~ ~ ~ ~ ~ ! ~ ~ ~ ~ &.~ ~ ~ &.&.~ } *. .<.<.| <.+.<.<.<.<.,.,.,.<.,.<.o.<.<.,.",
"o.o.o.o.o.o.o.o.o.o.o.o.o.o.o.*.9XcXZXNXCXCXMXBXBXMXgXgXgXBXNXfXNXNXNXBXMXNXNXgXNXfXNXCXCXVXcX9Xo.o.o.o.o.o.o.o.o.o.o.o.o.o.o.o.",
"G G G G G G G G G G G G G G G J $XCXPXSXHXPXSXLXLXSXLXLXLXHXHXHXKXJXIXPXPXPXLXLXLXDXLXLXSXLXCX#XJ G G G G G G G G G G G G G G G ",
"o.o.o.o.o.o.o.o.o.o.o.o.o.o.,. .+ $XyXeXeXrXrXrXrXrXrXrXrXrXtXtXtXtXtXtX3X2X3X3XrX3XrX3X3XpX#X+ } ,.o.o.o.,.o.o.o.o.o.o.o.o.o.o.",
"<.,.,.,.<.<.,.o.,.,.o.o.<.,.,.:.! $XsXyXuXuXiXuXnXuXxXxXcXmXnXnXxXnXxXnXnXpXvXpXtXuXuXbXmXFX1X..,.<.<.o.<.<.<.o.<.,.,.,.<.<.,.<.",
"G G G G G G G G G G G G G G G } + %XsXAXSXZXPXPXHXHXJXIXIXIXIXPXIXJXJXHXLXLXLXLXPXHXSXLXmXUX$X.. .G G G G G G G G G G G G G G G ",
"o.o.o.o.o.o.o.o.o.o.| o.| o.o.*.%.$XbXCXDXu.4X2.a.u.a.p.9.p.p.p.p.9.p.a.a.a.a.a.9.9.#XBXbXJX0X .o.o.o.o.o.o.o.o.o.o.o.o.o.o.o.o.",
"<.,.<.,.<.,.<.,.,.,.,.,.,.<.<.<.} $XuXBXVX0 q 2 2 7 1 1 3 3 1 6 3 3 3 3 6 2 7 1 3 4 A gXiXGX8XX.,.,.,.<.<.,.<.<.<.<.,.,.o.<.<.,.",
"o.o.o.o.o.o.o.o.o.o.o.o.o.o.o.| G 6XyXNXNX4 4.4.) j C C B B B C m M 4.4.j j k N 5.M ( CXpXDX4XR o.o.o.o.o.o.| o.o.o.o.o.o.o.o.o.",
"G G G G G o.G G G G G G G | | o.K 5XyXBXCX4 Y 6.p w w I 3.Y w / ` _ _ ( / / ( ) 3.3.( jXpXFX4XK G | G G | E G G G | G E G | G G ",
"o.o.o.o.o.o.o.o.o.o.o.o.o.o.o.,.K 5XsXBXCXZ Z W % % % , , , : : * - > = # % % w q Y ` jXlXDXp.W O.o.o.o.o.,.,.o.o.o.o.o.o.,.o.o.",
",.,.o.,.,.o.,.,.,.,.o.,.,.,.,.>./ 5XpXpXfXA Z ` $ o o * - * X X X o f.; ; : $ ! Z $.1.sXpXFX9X>.,.o.,.+.o.,.+.o.,.o.,.o.,.+.,.o.",
"G G G G G G G G G G G G G G | G L 4XiXBXCX0 P ` - o d.d.f.g./.b.[.{.Z.(.'.].- + A I _ VXuXDX6XF G G G G G G G G G G G G G G G G ",
"+.o.,.+.o.o.,.o.o.<.,.o.o.<.,.,.G 6XMXBXVX9 u ' > N._._.V.+X'..X[.|.Z.+X].M.- ! y Y _ hXaXSX8X} ,.,.,.o.,.<.o.<.o.o.o.,.o.,.o.o.",
",.o.,.o.+.o.o.,.,.o.,.,.<.,.o.:.H $XbXBXVX9 r Y + < (.V., ;.V.g.g.Z.%.;.V.r.+ ` y s ) dXaXSX8X..,.o.,.o.o.+.<.o.,.o.o.o.,.o.,.o.",
"G E | | o.| G E G | G G o.G o.J F $XbXBXhX8 u ) D g.&XA.i.OX+XA.(.A.;.OX+XB.@ K y s ' hXaXDX$X..| G o.| G G o.| G o.o.G o.G G o.",
"o.o.o.o.o.o.o.E o.| o.o.o.o.o.o.H 7XnXBXVX8 u _ & n.|._.r.^.'.}.}.}.V.&X'.R.# + y I _ hXaXSX7X..+.| o.o.| o.o.o.o.o.o.o.o.o.o.o.",
"o.,.o.+.o.,.,.o.,.,.o.,.,.,.,.,.G 8XpXBXVX0 u _ - /..X}.B.(.).[.[.).n.A._./.- %.q P _ VXsXSX8X| <.<.o.,.,.o.,.<.o.,.o.,.o.o.,.o.",
"o.o.o.o.o.o.o.o.o.o.o.>.o.o.,.o.K 7XbXBXVX0 i W > N.[._.C.*X X[.XX XC.*X{.M.* %.Z Y _ VXaXSX8X..*.+.o.o.o.o.o.o.o.o.o.o.o.o.o.o.",
"G G G | G G G G G G G G G G | G L 4XbXBXVXq i ' = f..X|.Z.&X.X X X Xg.*X|.M.O ! Z Y _ dXaXZX6XD | | { G G | | G G G G G G G G G ",
"o.o.o.,.o.o.o.o.<.o.,.o.o.o.,.:.| 7XbXBXVX8 u I , g.`.(.r.@XA.`.`.(.h.@XA.q., L e Y P dXsXSX8X .,.o.o.,.o.,.,.o.o.o.o.o.o.,.o.o.",
"o.,.o.,.<.o.<.o.<.o.o.,.,.,.,.,.F $XMXBXVX9 u ( + ; C.B.< i.S.n.M.C.< ;.^.; $ ^ e f _ VXaXSX8X..,.,.,.,.,.O.,.,.o.,.,.,.<.o.,.,.",
"G G G G | G G G G G G G G G G J F 7XuXBXVX8 u ' > N._._.S.A.`.}.)._.B.@X].l.# ! q d _ dXaXDX8X..| { G G G G G G | G G G G G G G ",
"o.,.o.o.o.o.o.o.o.,.o.o.,.o.,.,.G 7XbXBXVX9 y ' & f.}._.B.S._.[.[.}.S.A.).q.O ! q d _ VXaXSX8X{ *.o.o.o.,.o.o.o.o.o.o.+.o.o.o.o.",
"<.<.<.<.,.,.<.,.<.<.o.+.,.,.<.<.K 7XpXBXCX0 Q W > N. X{.Z.*X X[.[. Xg.Z.}.N.O %.Z Y _ VXaXSX8X} ,.<.,.,.,.,.,.<.<.+.,.,.<.,.<.+.",
"G G G G G G G G G G G G G G G G K 4XpXBXVX9 i ] - f. X{.g.*X XXX X X(.*X|.N.* %.q Y _ VXaXSX7XF  .G G G G G G G G E G G E | G G ",
"o.o.o.o.o.o.o.o.o.o.o.o.o.o.o.| F 6XuXBXVX8 u ' & g..X_.Z.+X`..X X{.V.+XM.q.O D q s _ VXaXSX8X..| o.o.o.o.o.o.o.o.o.o.o.o.o.o.o.",
",.,.o.<.,.,.o.<.o.o.o.o.o.o.,.,.G 7XMXBXVX8 y ( > f._.(.g.A.M././.M.r.+XM.: $ ~ q s ( VXsXSX0X .:.+.o.o.o.,.o.o.<.o.,.,.o.,.,.,.",
"o.o.| o.o.o.o.| o.o.o.o.o.o.o.o.K 6XbXAXjX8 u ' %.f.M.S.< Z.M././.(.g.g.C.; , &.9 ) [ fXsXGX%X..{ o.| o.o.| o.o.o.o.o.o.G o.o.o.",
"G | G E G G G | G G G o.G G G E T 4XmXAXjX8 u W = f.`.`.h.+X'.}.}._.Z.;X`.; = %.9 h w fXMXGX$X..| o.| | o.G G G G G o.G G G G G ",
"o.o.,.o.o.o.o.,.o.o.,.o.,.,.,.,.R 6XmXUXCX. p ` = f.'.'.S.A.).oX).R.B.^.^.o O ! 7 s.a.kXsXSX8XJ ,.<.+.+.,.,.,.o.o.o.,.o.o.o.o.o.",
"o.o.o.,.+.o.o.o.,.o.o.,.o.,.,.+.{ 8XmXBXFX8 p ' + - S.B.< < q.N.q.q.- $ # O # D w s.a.kXaXSXqXF ,.o.<.o.+.o.o.o.o.o.o.,.,.,.,.o.",
"G G G G G G G G G G G G G G G J F #XnXBXjX7 t C X.D ..D A P S D D F G Z / ! ! P l s.j jXgXDX7XD J G | G G G G G G G G G G G G G ",
"o.o.o.o.o.o.o.o.o.o.o.o.o.o.o.:.D #XsXBXjX6 l N 6.$.` P m m Q Q Q Q 6.3.P P P d 3 s.C kXgXDX8XD *.o.o.o.o.o.o.o.o.o.o.o.o.o.o.o.",
"<.o.<.<.o.<.<.o.<.,.<.<.<.<.<.1.! #XMXBXjX6 t B m Y Y u V V r Y Q 5 V i e y 4 5 l s.a.kXpXSX8XS <.<.<.<.<.<.<.,.,.,.,.,.<.+.,.<.",
"G G G G G G G G G G G G G G o.} D #XsXCXjX7 l n r i a u V z r m 4.V b r e d g t C C j kXaXSX%XF } G | G G G G G G G G G G G G G ",
"| o.o.o.o.o.o.o.o.o.| o.o.o.+. ...0XcXAXNX0 P u 4.Y 7.) j n f U U U k j j j ) t t h w jXsXKX6X{ | o.o.o.o.o.o.o.E | o.o.| o.o.o.",
",.+.<.o.o.,.,.o.<.<.<.<.<.o.,.<...0XcXZXNX4 P i Y U U U f j s Y U f k k g a ) e t g ( jXMXGX6XX.<.<.+.<.o.<.,.<.<.,.<.o.+.,.,.o.",
"o.o.G o.G o.| o.o.| o.o.o.o.o.o...0XcXZXCX0 Q i m x b B b b x 5.x M z z V c 5.i t g ) VXcXGX$XJ o.o.o.| o.o.o.o.o.| o.o.| o.o.E ",
"G G G | o.G G G G G G | G G G | ..0XyXBXVX4 u i b b B B b B c c 5.c z z c c 5.5 i g ' VXMXKX%XF G G G G G G | | G G G G G G G G ",
",.,.,.@.o.,.<.,.,.,.,.<.,.<.<.<.H 5XpXlXVX8 u u n z z B b b b x 5.m k n b B 5.V a d ) VXMXKX$XK 1.,.,.<.,.,.<.<.<.<.<.<.<.,.<.+.",
"o.o.o.o.o.o.o.o.o.,.o.o.o.o.,.o.K 5XpXlXhX8 p u k z z b b m m 3.3.3.t k b B 5.r g d ' NXMXGX5XH :.+.o.o.o.o.+.o.o.o.o.o.o.o.o.o.",
"G G G G G G G G G G G G E G G | G 5XpXBXCX0 P u a a b B N 4.3.3.3.3.h t z B c r u d ( VXsXSX#XL G | | G G J | G G G G G G G G G ",
"o.o.o.o.o.o.o.o.o.o.o.,.O.o.o.o.{ 7XiXBXCX4 P i f f v M 4.4.3.3.3.U k j b B B r a d ] dXMXGX#XF :.o.o.o.o.o.o.:.o.o.o.o.o.o.o.o.",
"@.@.+.@.@.+.+.+.,.,.o.O.@.@.$.<. .$XuXZXCX  p u f v v a a a m m m m g f a V V r i d ' dXsXGX7X&.,.<.<.@.+.o.:.:.:.,.>.:.o.o.O.O.",
"X.X.{ | |  .| | F { o.o.X.o.o.| S $XyXZXfX8 P 3.r r r t t r r V r i r u r r r r a g ' dXfXZX%XL | o.X.o.| | | F } | J R R E E R ",
":. .o.| | *.*.|  .| *. .| | |  .D 0XaXCXdX0 p m M M n n n N M c 5.5.m N N N b M N Y ' kXyXZX8X}  .| | | o.o.o.o.o.o.E o.o.O.E W ",
",.:.:.1.:.,.1.<.1.1.:.*.*.*.:.2.S 8XaXhXVX0 p f m m v v v b x c 5.x m v v n b b a s ] hXfXSX5XH 2.,.| +.,.o.o.<.,.,.O.,.O.>.>.>.",
"| | E E E E #.E E R | |  . .:.-.! u.aXjXjX8 h 7.n v n a n n b B M x v a a n z v a d ( kXyXDXu.D -.*.*.-. .| J J G o.E E E J ^ | ",
"E ~ J J E E W W R G | +.:.} S H + #XgXlXCX. 8 I U U d d I U 3.4.Y s g g d d f f d P / kXaXKX#X! ! D S *.*.} J E E E E E J J J ~ ",
"` ^ :.` >.,.O.O.O.@.+.<.=...-.2.;.-XnXAXMX;. .2.>.$.` :.` ,.>.$.$.O.E ` ` ` ] W >.*.OXCXAXUX-Xh.2.=.%.*.:.,.+.@.O.O.O.>.o.:.>.*.",
"*.*.:.:.o.W O.>.@.+.<.-. .=.%XtX1XzX>XmX2X-XwXwXwXwXwXeXeXeXwXwXwXwXeXeXeXwXwXwXwX=X2XxX-XzXzX-XeX%X-.{ :.,.@.@.O.$.O.O.O.o.:.>.",
"H K J K G R R R R X.{  ... .h.qX1X>X>X>X>X>X1X1X-X1X1X;X;X1X1X1X-X1X;X;X1X1X1X1X1X1X;X>X>X>X>X1XeX2.S F { X.R W T T T R R G G E ",
"%.%.%.&.=.=.=.=.=.=.%.%.%.;.OX2X>X,X,X,X,X,X>X>X<X<X,X,X:X,X:X<X<X:X,X~.:X:X<X;X;X;X:X:X,X,X<X;X1XOX;.%.;.=.%.-.&.&.&.&.=.%.%.%.",
"w.w.w.w.w.e.e.e.r.e.e.e.w.B.^.:X+X~.~.!.!.~.~.~.~.~.!.!.!.!.~.~.~.!.!.!.!.!.~.~.~.~.~.~.~.~.~.+X~.L.q.w.w.w.w.w.e.w.w.w.w.w.w.w.",
"U.U.L.L.^.L.^.L.L.L.L.R.K.J.K.R.L.L.J.K.T.L.L.L.L.K.F.I.F.F.J.m.t.J.t.t.t.t.y.y.y.y.t.J.m.y.J.J.U.y.t.G.G.G.t.y.J.J.J.y.y.t.y.t.",
"D.c.x.x.v.v.c.c.I.H.H.I.W.v.v.F.H.M.H.v.v.H./.Y.R.R.Y.Y.W.E.K.K.K.Y.W.W.I.W.Q.T.R.R.P.I.I.K.K.L.G.F.F.P.U.I.I.I.I.t.P.I.P.G.P.t.",
"x.x.x.x.z.z.z.z.z.z.z.z.z.z.z.x.H.m.v.v.v.v.H.m.m.j.k.z.z.k.j.0.m.m.z.v.c.z.m.m.j.v.z.z.z.k.m.0.F.0.x.F.c.0.t.0.t.0.t.0.t.0.t.t.",
"j.k.k.k.k.k.z.k.v.v.v.k.j.m.H.m.k.m.z.z.v.v.H.m./.v.v.v.x.D.m.H.m.m.D.v.v.H.H.H.I.H.c.c.c.c.D.G.D.H.F.D.I.0.0.0.0.0.t.0.0.t.t.I.",
"R.R.R.Y.Y.Y.Y.Y.Y.Y.T.T.R.R.R.R.Y.W.W.W.W.W.Y.Y.Y.Y.Y.W.E.Q.L.L.^.R.Y.E.W.E.Y.T.Q.W.W.W.c.I.P.U.Q.Q.Q.Q.Q.W.Q.Q.W.W.Q.I.Q.U.U.U."
};
