/* XPM */
static char *_5ad1820a3e1439ddc325429bf793173s4BMJrqRCEcdiWjq[] = {
/* columns rows colors chars-per-pixel */
"64 64 140 2 ",
"   c #47AA3E",
".  c #5AB23E",
"X  c #64B63F",
"o  c #6BBA3E",
"O  c #70B63D",
"+  c #74BD3E",
"@  c #7ABE3E",
"#  c #76C23E",
"$  c #7DC23E",
"%  c #4AAC40",
"&  c #61B542",
"*  c #65BC43",
"=  c #6DBD40",
"-  c #73BE40",
";  c #78BF41",
":  c #74C041",
">  c #7CC240",
",  c #EABE12",
"<  c #EE8E3A",
"1  c #EDA43D",
"2  c #EFA93B",
"3  c #ECB43A",
"4  c #85C33E",
"5  c #8BC63E",
"6  c #8BC83E",
"7  c #96C637",
"8  c #9BC536",
"9  c #9DC834",
"0  c #92C63C",
"q  c #9AC738",
"w  c #95C83D",
"e  c #9BC93C",
"r  c #AFC42E",
"t  c #ACCB2E",
"y  c #B7CD26",
"u  c #B0C42B",
"i  c #BDC52A",
"p  c #B3CC2B",
"a  c #A3C534",
"s  c #AEC431",
"d  c #A1C833",
"f  c #A2CB3C",
"g  c #ADCE3B",
"h  c #B3CE3C",
"j  c #BFD137",
"k  c #B6D13B",
"l  c #CBCD1F",
"z  c #D5CB1B",
"x  c #EAC212",
"c  c #E1C915",
"v  c #C6CD25",
"b  c #C6C528",
"n  c #DDC625",
"m  c #CBD026",
"M  c #D4D226",
"N  c #DBCD36",
"B  c #DBC83B",
"V  c #C4D236",
"C  c #CAD137",
"Z  c #CDD53B",
"A  c #D4D43B",
"S  c #DCD33B",
"D  c #E5C623",
"F  c #EAC729",
"G  c #E7C92F",
"H  c #E7D525",
"J  c #E8C636",
"K  c #E5CB33",
"L  c #ECC33B",
"P  c #F1CB36",
"I  c #84C440",
"U  c #8DC641",
"Y  c #8FC845",
"T  c #8EC749",
"R  c #90C746",
"E  c #91C847",
"W  c #98C841",
"Q  c #93C94C",
"!  c #9ECC4E",
"~  c #8DC859",
"^  c #97CA51",
"/  c #9ACB55",
"(  c #9DCD5B",
")  c #B8D14B",
"_  c #A6CF52",
"`  c #A1CF62",
"'  c #A5CF69",
"]  c #A3D065",
"[  c #ABD265",
"{  c #A6D26A",
"}  c #A8D26D",
"|  c #ABD372",
" . c #AED679",
".. c #B0D575",
"X. c #B2D67C",
"o. c #B5D87E",
"O. c #B5D983",
"+. c #BBDA85",
"@. c #BBDB8B",
"#. c #BEDC93",
"$. c #C1DD96",
"%. c #C2DF99",
"&. c #C5E19D",
"*. c #C8E09D",
"=. c #CBDEA4",
"-. c #CFDEA8",
";. c #D7D4B3",
":. c #F2C4BD",
">. c #F5DEB0",
",. c #CCE3A6",
"<. c #CCE4AB",
"1. c #D3E2A2",
"2. c #D2E4AE",
"3. c #D3E5B3",
"4. c #DBE6BB",
"5. c #DBEABD",
"6. c #E1E8B1",
"7. c #EBEAB3",
"8. c #E0E2BF",
"9. c #EDE3BF",
"0. c #EAE9B8",
"q. c #E4DBC3",
"w. c #EDD9CB",
"e. c #EBDAD5",
"r. c #F1DDD4",
"t. c #F5DCD8",
"y. c #DCEDC4",
"u. c #E5EEC6",
"i. c #E5E2CC",
"p. c #E3EECF",
"a. c #EDECCF",
"s. c #F3F2C7",
"d. c #EBEED2",
"f. c #ECECDA",
"g. c #EAF2D0",
"h. c #ECF2DB",
"j. c #F8F4D1",
"k. c #F0F3DD",
"l. c #F7EEEA",
"z. c #FAF3EF",
/* pixels */
"5 5 5 5 5 5 6 g A h 5 5 5 5 5 5 5 5 5 5 5 5 5 5 5 5 5 6 5 4 5 5 5 5 5 5 5 5 5 5 5 5 5 5 5 5 5 5 5 5 5 5 5 5 5 5 5 5 5 I 6 5 5 5 ",
"5 5 5 5 5 5 w B 1 A w 5 5 5 5 5 5 5 5 5 5 5 5 5 5 5 5 6 4 @ 5 5 5 5 5 5 5 5 5 5 5 5 5 5 5 5 5 5 5 5 5 5 5 5 5 5 5 5 5 5 5 5 5 5 ",
"5 5 5 5 5 5 e K 2 S w 5 5 5 5 5 5 5 5 5 5 5 5 5 5 5 5 4 5 4 U 5 5 5 5 4 4 6 5 4 I 5 I 5 5 5 5 5 5 5 5 5 5 5 5 5 5 5 5 5 5 5 5 5 ",
"5 5 5 5 5 Q [ ) V g 5 5 5 5 5 5 5 5 5 5 5 5 5 5 5 5 5 6 5 5 5 5 5 5 5 $ + 6 4 4 5 5 5 5 5 5 5 5 5 5 5 5 5 5 5 5 5 5 5 5 5 5 5 5 ",
"5 5 5 5 Y 2.r.$.5 5 5 5 5 5 5 5 5 6 5 5 5 5 5 5 5 5 5 5 5 5 5 5 5 5 5 5 5 5 5 5 o @ 5 5 5 5 5 5 5 5 5 5 5 5 5 5 I 5 5 5 5 5 5 5 ",
"5 5 5 5 R 3.w.+.5 5 5 5 5 5 5 5 5 5 5 5 5 5 5 5 5 5 5 5 5 5 5 5 5 5 5 5 5 5 5 5 I 5 5 5 5 5 5 5 5 5 5 5 5 5 5 5 4 5 5 5 5 5 5 5 ",
"5 5 5 5 5 / } R 5 5 5 5 5 5 5 5 5 5 5 5 5 5 5 5 5 >   ; 5 5 5 5 5 5 5 5 5 6 5 5 5 5 5 5 5 5 6 X.$.Q 5 5 5 5 5 5 % = I 5 5 5 5 5 ",
"5 5 5 5 5 5 5 5 5 o 4 5 5 5 5 5 5 5 5 5 5 5 5 5 5 5 = o I 5 5 5 5 5 5 5 5 5 5 5 5 5 5 5 5 5 Q 8.r.} 5 / ^ 5 5 5 ; - : I 5 5 5 5 ",
"5 5 5 5 5 5 5 5 5 5 5 5 5 $ 4 6 5 5 5 5 5 5 5 5 5 5 5 5 5 5 5 5 5 5 5 5 5 5 5 5 5 5 5 5 5 5 U | $.{ ( 5.@.5 0 5 5 I I 6 5 5 5 5 ",
"5 5 5 5 5 5 5 5 5 5 5 5 5 4 5 5 5 5 5 5 5 5 5 5 5 5 5 5 5 5 5 5 5 5 5 5 5 5 5 5 5 5 5 5 5 5 5 5 5 @.h.a.,.` 5 5 4 4 5 5 5 5 5 5 ",
"5 5 5 5 5 5 5 5 5 5 5 5 5 5 5 5 5 5 5 5 5 5 5 5 5 5 5 5 5 5 5 5 5 5 5 5 5 5 5 5 5 5 5 5 5 5 5 5 5 ` k.>.d.%.R 5 4 > 5 5 5 5 5 5 ",
"5 5 5 5 5 5 5 5 5 5 5 5 5 U 5 $ 4 5 5 5 5 5 5 5 5 5 5 5 5 5 5 5 5 5 5 5 5 5 5 5 5 5 5 5 5 5 5 5 5 O.y.4.3.Q 5 5 I 5 5 5 5 5 5 5 ",
"E / ( E 5 5 5 5 5 5 5 5 5 5 I @ I 5 5 5 5 5 5 5 5 5 5 5 5 5 5 U U 5 5 4 o 5 5 5 5 5 6 5 5 5 5 5 5 E Q ` ,.E 5 5 U 5 5 5 5 5 5 5 ",
"/ 4.8.( 5 5 5 5 5 5 5 5 5 5 5 I 5 5 5 5 5 5 5 5 5 5 5 5 ] @. .O.5 5 5 5 # # 5 5 5 5 5 5 5 5 5 5 5 5 5 I E 5 5 5 5 5 5 5 5 5 5 5 ",
"Q @.2./ 5 5 5 5 5 5 5 5 5 5 5 5 5 5 5 5 5 5 5 5 5 5 5 5 { h.9.y.^ 5 5 5 = : 5 5 5 5 5 5 5 5 5 5 5 5 5 5 5 5 5 5 5 5 5 5 5 5 5 5 ",
"6 U Q 6 5 5 5 5 5 5 5 5 5 5 5 5 5 5 5 5 5 5 5 5 5 5 5 5 ( 5.a.3./ 5 5 5 5 U I 6 5 5 5 5 5 5 5 5 5 5 5 5 5 5 5 5 5 5 5 5 5 5 5 5 ",
"5 5 5 5 5 5 5 5 6 5 5 5 5 5 5 5 5 5 5 5 5 5 5 5 5 5 5 5 Y Q #.} 5 5 5 5 5 U 5 5 5 5 5 5 6 5 I U 5 5 5 5 5 I 5 5 5 5 5 5 5 5 5 5 ",
"5 5 5 5 5 5 5 6 + 4 5 5 5 5 5 5 6 0 5 5 5 5 5 5 5 5 5 5 5 5 U U R 5 5 5 5 5 5 5 5 5 5 5 U I 4 5 5 5 5 5 5 4 5 5 5 5 5 5 5 5 5 5 ",
"5 5 5 5 5 5 5 5 4 5 5 5 5 5 5 0 k Z f 6 5 5 5 5 5 5 5 5 I > + 4 5 5 5 5 5 5 5 5 5 5 5 5 5 5 5 5 5 5 5 5 5 ; I 5 5 5 5 5 5 5 5 5 ",
"5 5 5 5 5 5 5 5 5 5 U 5 U 5 5 k L 2 Z 6 $ 5 5 5 5 5 5 5 5 4 $ 5 5 5 5 5 5 5 5 5 5 5 5 5 5 5 5 5 5 5 5 5 4 I 5 5 5 5 5 5 5 5 5 5 ",
"5 5 5 5 5 5 4 4 5 5 ..@.! 5 I f 3 2 V 5 5 5 5 5 5 5 5 5 5 5 5 5 5 5 5 5 5 5 5 5 5 5 5 5 5 5 5 5 5 5 U 5 > > 0 5 5 5 5 5 5 5 5 5 ",
"5 5 5 5 5 5 > $ 6 T 1.7.} 5 6 0 g j g 5 5 I 5 5 5 5 5 5 5 5 5 5 5 5 5 5 5 ; I 5 5 5 5 5 5 5 5 5 5 5 0 k w U U 5 5 5 5 5 5 5 5 5 ",
"5 5 5 5 6 5 6 6 5 U | | T 5 5 5 I 6 5 5 5 + 4 5 5 5 5 5 5 5 5 5 6 5 5 5 6 $ > 4 5 5 5 5 5 5 5 5 5 e C L S e ^ $.` 5 5 5 5 5 5 5 ",
"5 5 5 5 5 5 5 5 5 5 5 I 4 5 5 5 6 6 5 5 5 4 5 5 5 5 5 5 5 5 5 5 5 5 5 5 $ I I 5 5 5 5 5 5 5 5 5 5 e S < N _ ,.s.&.5 5 5 5 5 5 5 ",
"5 5 5 5 5 5 5 5 5 5 5 5 5 I 6 5 6 5 5 U 5 0 U 5 5 5 5 5 5 5 5 5 5 5 5 5 4 I 0 5 5 5 5 5 5 5 5 5 5 5 g N A ! ,.5.@.U 5 5 5 5 5 5 ",
"5 5 5 5 5 5 5 5 5 5 5 5 5 5 5 5 6 5 > 4 6 6 5 5 5 5 5 5 5 5 5 5 5 5 5 5 5 6 5 5 5 5 5 5 5 5 5 5 5 5 5 0 w 5 Q ^ R I 5 5 5 5 5 5 ",
"5 5 5 5 5 $ 4 5 5 5 5 5 5 4 $ 5 5 5 @ $ : I 5 5 5 5 5 5 $ 4 5 5 5 5 5 5 U 5 5 5 5 5 5 5 5 5 5 5 5 5 5 5 5 5 5 5 5 5 5 5 5 5 5 5 ",
"5 5 5 5 5 $ 4 6 5 5 5 5 5 4 @ U 5 5 5 5 4 5 5 5 5 5 5 5 $ 4 5 5 5 5 Q / U 5 5 5 5 5 5 5 5 5 5 5 5 5 5 5 5 5 5 5 5 5 5 5 5 5 5 5 ",
"5 5 5 5 5 5 6 5 5 5 5 5 5 5 5 5 5 5 5 I 6 5 5 5 5 5 5 5 5 5 5 5 5 Y -.q.{ 5 5 5 5 5 5 5 5 5 5 5 5 5 5 5 4 > 4 6 5 5 5 5 5 5 5 5 ",
"5 5 5 5 5 5 5 5 5 5 5 5 5 5 5 5 5 5 5 5 5 5 5 5 5 5 5 5 5 5 5 5 5 E =.i.} u r 7 > I 5 5 5 5 5 5 5 5 5 5 $ $ I 6 5 5 5 5 5 5 5 5 ",
"5 5 5 5 5 5 5 5 5 5 5 5 5 5 5 5 5 5 5 5 5 5 5 5 5 5 5 5 5 5 5 5 5 5 Y / s G F 8 . 5 5 5 5 5 5 5 5 5 5 5 5 5 5 5 5 5 5 5 5 5 5 5 ",
"5 5 5 5 5 5 5 5 5 5 5 5 5 4 4 5 5 5 5 5 5 5 5 5 5 5 5 5 5 5 5 5 5 5 5 5 8 n n 7 4 5 5 5 5 5 5 5 5 5 5 4 4 5 5 5 5 5 5 5 5 5 5 5 ",
"R 6 5 5 5 5 5 5 5 5 5 5 5 X 4 5 6 R 5 5 5 5 5 5 6 U 5 @ 5 5 5 5 5 5 5 5 5 u a 0 5 5 I 5 5 5 5 5 5 5 5 I @ U 5 5 5 5 5 5 5 5 5 Y ",
"/ 5 I 5 5 5 5 5 5 5 5 5 4 4 5 E $.3./ 5 5 5 5 U 4 4 @ + 5 5 5 5 5 5 6 6 5 5 I 5 5 5 6 5 5 5 5 5 5 5 5 5 5 5 5 5 5 5 5 5 5 5 5 ` ",
"O.5 5 5 5 5 5 5 5 5 5 5 $ 4 5 ] w.t.o.5 5 5 5 5 4 $ + 6 5 5 5 5 5 5 5 4 5 5 0 U 5 5 5 5 5 5 6 6 5 5 5 5 5 5 5 5 5 5 5 5 5 5 5 / ",
"Q 5 5 5 5 5 5 5 5 5 6 6 6 U 5 ^ 4.2./ 5 5 5 5 5 6 U 5 5 5 5 5 5 5 5 4 4 5 5 5 5 5 5 5 5 5 5 5 4 5 5 5 5 5 5 5 5 5 5 5 5 5 5 5 5 ",
"5 5 5 5 5 5 5 5 5 6 5 5 5 5 0 y h W 5 5 5 5 5 5 6 5 5 6 5 5 5 5 5 5 5 5 5 5 5 5 5 5 5 5 5 5 4 + I 5 5 5 5 5 5 5 5 5 5 5 5 5 5 5 ",
"5 5 5 5 5 5 5 5 5 5 5 5 5 5 y , c 9 5 5 5 6 5 5 6 5 5 5 5 5 5 5 5 5 5 5 5 5 5 5 5 5 5 5 5 5 5 5 5 5 5 5 5 5 5 5 5 5 5 5 5 5 5 5 ",
"5 5 5 5 5 5 5 5 5 5 5 5 5 5 9 c z 0 5 > I 6 5 5 5 5 5 5 5 5 5 5 5 5 5 5 5 5 5 5 5 5 5 5 5 5 5 6 5 5 5 5 5 5 5 6 5 5 5 5 5 5 5 5 ",
"5 5 5 5 5 5 5 5 5 5 5 5 5 5 5 p 9 5 5 * 4 5 5 5 5 5 5 5 5 5 5 5 5 5 5 5 5 5 5 5 5 5 5 5 5 5 5 5 5 5 5 5 5 5 5 5 5 5 5 5 5 5 5 5 ",
"5 5 5 5 5 5 5 5 5 5 5 5 5 5 5 6 5 5 5 I U 5 5 5 5 5 5 5 5 5 5 5 5 5 5 5 5 5 5 5 5 5 5 w 6 6 5 5 5 5 5 5 5 5 5 5 5 4 5 5 5 5 5 5 ",
"5 5 5 5 5 5 5 5 5 5 5 5 U 5 5 5 5 5 5 5 5 5 5 5 5 5 5 5 5 5 5 5 5 5 4 5 5 5 5 5 6 5 e A Z e 5 5 5 5 5 5 6 5 5 5 5 - I 5 5 5 5 5 ",
"5 5 5 5 5 6 $ 4 0 5 5 5 5 5 5 5 5 5 5 5 5 5 5 5 5 5 5 5 5 5 5 5 4 : o 4 5 5 5 5 U 0 S 1 3 g 5 5 5 5 5 5 5 5 5 5 5 4 6 5 5 5 5 5 ",
"5 5 5 5 5 > : 4 5 6 I 5 5 5 5 5 5 5 5 5 5 5 5 5 5 5 5 5 5 5 5 5 4 $ 4 4 4 5 5 5 5 6 h 3 J f 5 5 5 5 5 5 5 5 5 4 + 6 4 6 5 5 5 6 ",
"5 5 5 5 4 $ I U 5 5 o 4 5 5 5 5 I 5 5 5 5 5 5 5 5 5 U 5 5 5 5 5 Q  .} U 5 5 5 5 5 5 w g k 4 X U 5 5 5 5 5 5 5 4 4 > > 6 5 5 5 5 ",
"5 5 5 5 5 4 U 6 5 5 @ I 5 5 5 4 I 5 5 5 5 5 5 5 5 O.#.5 5 5 5 5 | 0.1.E 5 4 5 5 5 5 5 5 5 . & 5 5 5 5 5 5 5 5 5 5 5 5 5 5 5 5 5 ",
"5 5 5 5 5 5 6 6 5 5 U 6 5 5 5 5 5 5 5 5 5 5 5 U ` ,.p.@.] 5 Q ( / o.X.6 4 + 5 5 5 5 5 5 5 $ U 5 5 5 5 5 5 5 5 5 5 5 5 5 5 5 5 5 ",
"5 5 5 5 5 5 5 5 5 5 5 5 5 5 5 5 5 5 5 5 5 5 4 T 5.a.:.p.] 5 *.g.| 6 6 6 5 5 5 5 5 5 5 5 I ; 5 5 5 5 5 5 5 5 5 5 5 5 5 5 5 5 5 5 ",
"5 5 5 5 5 5 5 5 5 5 5 5 5 5 5 5 5 5 5 5 5 5 @ 4 ' f.q.5.Q U ,.j.%.5 5 5 5 5 5 5 5 5 5 5 5 5 5 5 5 6 6 I 4 I 5 5 5 5 5 5 5 0 9 d ",
"5 5 5 5 5 5 5 5 5 5 5 5 5 5 5 5 5 5 5 5 @ @ 4 5 ` 3.' <.] # ~ O./ 5 5 5 5 5 5 5 5 5 5 5 5 5 5 5 5 4 I 4 $ 4 5 5 5 5 5 5 5 t H M ",
"5 5 5 5 5 5 5 5 5 5 5 5 5 5 5 5 5 5 5 5 4 4 5 5 5 E 5 U U I $ 5 5 5 5 5 5 5 5 5 5 5 5 5 5 5 5 5 5 5 4 U 5 5 5 5 5 5 5 5 5 9 m v ",
"5 5 5 5 5 5 5 5 5 5 5 6 X > 6 5 5 5 5 5 0 U 5 5 5 5 5 5 5 5 4 6 0 5 5 5 5 U 5 5 5 5 5 5 5 5 5 5 5 5 5 6 5 5 5 5 5 5 5 5 5 5 0 0 ",
"5 5 5 5 5 5 5 5 5 5 5 5 $ 4 $ 5 5 5 5 5 5 5 5 5 5 5 5 5 5 5 5 5 U 5 5 5 5 I + 4 5 5 5 5 5 5 4 4 5 5 5 5 5 5 5 5 5 5 5 5 5 5 5 5 ",
"5 5 5 6 5 5 5 5 5 4 4 U @ $ > 5 5 5 5 5 5 5 5 5 5 5 5 5 5 5 5 5 5 5 5 5 5 4 I I 5 5 5 5 5 5 4 @ 5 5 6 U 5 I 5 5 5 5 5 5 5 5 5 5 ",
"^ E U 6 5 5 5 5 5 4 @ 5 4 I 6 5 5 5 5 5 5 5 5 5 5 5 5 5 5 5 5 5 5 5 5 5 I 5 5 5 5 5 5 5 5 5 5 5 5 5 6 ^ *.,.` 5 5 5 5 5 5 5 5 5 ",
"&.2.| 6 5 5 5 5 E U 5 5 5 6 5 5 5 5 5 5 5 5 5 5 5 5 5 5 5 5 5 5 5 5 5 5 ; I 5 5 5 5 5 5 5 5 5 5 5 5 5 #.l.z.<.5 5 5 5 5 5 5 5 5 ",
"@.u.X.5 5 5 5 5 @.,._ I U 5 5 5 5 5 5 5 5 5 5 @ 4 5 5 5 5 5 5 5 5 5 5 5 I 4 6 5 5 5 5 5 5 5 5 5 5 5 5 ,.:.:.y.U 5 5 5 5 5 5 5 5 ",
"Y ' T 5 5 5 R @.;.e.@.6 U 5 5 5 5 5 5 5 5 5 5 @ 4 5 5 5 5 5 5 5 I 8 i r 5 5 5 5 5 5 5 5 5 5 5 5 5 5 5 } f.z.3.0 t q 5 5 5 5 5 5 ",
"5 5 5 5 5 5 Q -.f.q.&.U 5 5 5 5 5 5 5 5 5 5 5 5 5 5 5 5 5 5 5 5 U r P n q 5 5 5 5 5 5 5 5 5 4 @ 5 5 5 5 ] | ! l x l 5 5 5 5 5 5 ",
"5 5 5 5 5 R +.' #.` / I 5 5 5 5 5 5 5 5 5 5 5 5 U 5 5 5 5 5 5 5 0 b D b 7 5 5 5 5 5 5 5 5 5 4 4 5 5 5 5 5 6 5 b x v 5 5 5 5 5 5 ",
"5 5 5 5 5 ` 6.+.5 5 0 5 5 5 5 5 0 5 5 5 5 4 O 4 5 5 5 5 5 5 5 5 4 0 a 0 I 5 5 5 4 5 5 5 5 5 5 5 5 5 5 5 0 4 5 9 v a 5 4 5 5 5 5 ",
"5 5 5 5 5 R ` Q 5 5 5 5 5 5 5 5 4 0 5 5 5 5 4 0 5 5 5 5 5 5 5 5 5 5 5 4 5 5 5 5 4 0 5 5 5 5 5 5 5 5 5 5 4 0 5 5 5 5 5 4 5 5 5 5 ",
"5 5 5 5 0 5 5 0 5 @ 0 4 5 5 5 5 0 4 0 4 5 5 0 4 5 0 5 5 0 4 4 0 5 5 0 0 5 5 5 5 4 0 0 0 5 5 0 4 5 5 5 5 0 4 5 5 5 5 0 0 5 5 5 5 ",
"4 4 4 4 4 4 4 4 4 4 4 4 4 4 5 4 4 4 4 0 4 4 4 4 4 4 4 4 4 4 @ 4 4 @ 4 4 4 4 4 5 @ O 4 4 4 4 4 4 4 4 5 4 4 4 4 4 4 4 4 4 4 4 4 5 "
};
