/* XPM */
static char *_555f11f95d0434ae7b5e90a28bee6e6ahGfOKdCmZ2MReP7[] = {
/* columns rows colors chars-per-pixel */
"64 64 152 2 ",
"   c #3A1700",
".  c #401D00",
"X  c #452203",
"o  c #4A2606",
"O  c #4A2906",
"+  c #472308",
"@  c #4A2609",
"#  c #4D2B0A",
"$  c #512D0E",
"%  c #4F310F",
"&  c #55320D",
"*  c #5A340F",
"=  c #4C2F10",
"-  c #512E12",
";  c #4D3112",
":  c #543213",
">  c #5A3615",
",  c #5C3914",
"<  c #563419",
"1  c #5A3619",
"2  c #563919",
"3  c #5C3A1B",
"4  c #623C17",
"5  c #623E1C",
"6  c #5E3C21",
"7  c #623E22",
"8  c #65421D",
"9  c #6A441D",
"0  c #6C491F",
"q  c #704B1F",
"w  c #5E4021",
"e  c #654323",
"r  c #6A4623",
"t  c #674927",
"y  c #6C4A25",
"u  c #664529",
"i  c #69462A",
"p  c #664929",
"a  c #6D4B2A",
"s  c #714C26",
"d  c #724E2B",
"f  c #6E502E",
"g  c #745127",
"h  c #75522D",
"j  c #79542E",
"k  c #7F5A2F",
"l  c #6E4D30",
"z  c #724F31",
"x  c #6E5030",
"c  c #755332",
"v  c #7A5533",
"b  c #775936",
"n  c #7D5A34",
"m  c #7E5B35",
"M  c #7C5836",
"N  c #7E5A36",
"B  c #7F5B37",
"V  c #7D5834",
"C  c #7F5C34",
"Z  c #7F5C36",
"A  c #7C5935",
"S  c #7E5738",
"D  c #7A5739",
"F  c #775A3A",
"G  c #7F5B3B",
"H  c #7D5A3A",
"J  c #7E603E",
"K  c #7E6141",
"L  c #805B2F",
"P  c #805B31",
"I  c #815C32",
"U  c #805A35",
"Y  c #805A36",
"T  c #815B37",
"R  c #805D37",
"E  c #835D36",
"W  c #825F37",
"Q  c #845E37",
"!  c #815B35",
"~  c #805938",
"^  c #815A39",
"/  c #80593A",
"(  c #805C38",
")  c #815D39",
"_  c #825C38",
"`  c #835D39",
"'  c #815E38",
"]  c #825F39",
"[  c #835F3B",
"{  c #845E39",
"}  c #845E3A",
"|  c #855F3B",
" . c #845D3E",
".. c #815D3A",
"X. c #83603A",
"o. c #846139",
"O. c #876238",
"+. c #84613B",
"@. c #85623A",
"#. c #86633B",
"$. c #84603C",
"%. c #85613D",
"&. c #86603C",
"*. c #87613D",
"=. c #85623C",
"-. c #86633D",
";. c #86623E",
":. c #87643C",
">. c #87643E",
",. c #84613D",
"<. c #886339",
"1. c #8A6539",
"2. c #8C673B",
"3. c #88623E",
"4. c #88653D",
"5. c #89663E",
"6. c #8A673F",
"7. c #89633E",
"8. c #8D683E",
"9. c #8F683F",
"0. c #865F40",
"q. c #825E40",
"w. c #856342",
"e. c #896541",
"r. c #8A6440",
"t. c #8A6642",
"y. c #8C6642",
"u. c #8D6743",
"i. c #8E6746",
"p. c #8A6642",
"a. c #8B6840",
"s. c #8B6842",
"d. c #8C6941",
"f. c #8C6943",
"g. c #8D6A42",
"h. c #8C6844",
"j. c #8E6A46",
"k. c #8C6944",
"l. c #8A6749",
"z. c #8E6C4A",
"x. c #906A43",
"c. c #936E44",
"v. c #916B45",
"b. c #906948",
"n. c #936D48",
"m. c #916D4A",
"M. c #97714A",
"N. c #95714B",
"B. c #9E794F",
"V. c #916E50",
"C. c #947251",
"Z. c #9A7450",
/* pixels */
"8 6.:.j j h s 0 0 8 4 , , , 4 8 4 5 5 4 4 4 4 * * 4 4 5 5 L s j d d s 7 s 5 9 9 s s d U U U ^  .~ d 7 L L 9.9.M.Q ! / b.i.b.Z.3.",
", <.d.:.6.1.8.6.6.4.1.J O.O.8.8.y.i.n.i.y.| | 3.3. .! ! ~ ~ L s ~ ~ j j j S j ~ | | Q ! U U ~ ~ ~ U ~ Q O.L 1.Q  .~ ~ / j ~ 9.L ",
"* o.4.n h s g y y g 0 g 0 y g g j h h g j d d d 7 L s s s s s L 5 s s s s s s s s 5 5 4 * 4 4 5 5 4 7 L 4 L 4 4 4 4 7 d 7 7 L 4 ",
"& o.:.j g 9 y g h g h g b k k J ~ ~ j j L j ~ d L s d 7 s s 7 7 s s s s d d s s 7 s s s 7 L L d d L 7 L L L L L 5 L ~ 0.1.Q 9.! ",
", 1.a.X.n g j n j b k j k k b k V j d d d d d s L 7 L d L 7 L 7 s s s s s 9 s 9 d d d d d g d d ~ j ! L L L Q Q ~ ~ 7 ~ L ! 9.! ",
"4 #.:.C A y s y j h h j g b h h V v g h g d s y 7 7 7 s 7 L 7 L j j S ~ S j S S j h j d d s d d 7 7 7 5 9 4 q 5 7 7 7 7 7 s ! 4 ",
", k n j #.Z J Z k h j g j g k h V v v V j j h h Q U L 7 U 7 L 7 s 7 s 7 7 s s s s s s s s r y y j d s ~ s 5 L 7 L d ~ / L ! 3.L ",
"8 J J o.a.>.@.X.#.J L J J o.J J ) X.%.| / ~ Z Z Q ! ~ L U ~ U L ~ ~ j d j j d j h v h h h h h v j z s 7 s L L ! ~ ~ d ~ 7 7 ! q ",
"> d y M d d y s g y y d d d s y y y r r r y r r y d a h h d g s s d d d g h h v j h d d a y y e e e 8 8 0 y y a 7 d 7 / 7 z 0.~ ",
"4 ) ) h.>.t.t.t.+.+.) T m m H m j h g f h g h h d a g g d h g f s d d ~ h A b m ) H m T n n A c v c h h g g h g d z 7 / / ~ ~ s ",
", | %.h.) %.) / b c h d d d d d f g y y y y y y h A v v v v A v 7 7 s 7 t r y y y y r r y y t r i i y g g g y r 7 7 7 7 a a s 4 ",
", 4.t.%.h m m c Z m m n m m V v j h f g h h h c f y y g f a y f L L U U g f g a y r y y y g y y i i y f f g g y ~ z / 0.S M ` g ",
":  .%.) s M / S s d d d d d s i r r 9 t 8 r r y y g y y y y y y d U V V v v n n J C J n n n n b H D c c g g h f u i 7 i i d m h ",
"& / / b i v m v / M H M M v c d h h h h f h h h j h h h g h f g s 7 d h g g h h A h h c j h g f d a i r y y g a i l u l z M k.) ",
"5 w.%.%.v v M M H M v v v d d d r y y g g y y g g y y y r r r y d j g d i y g a g a y y a y 0 e u e e 8 r y s s r u 6 i i h %.A ",
"> H v ..d c z z z s i r i y i i t y f f y f a a h f f a y y y i 5 5 r 5 r 8 y y y y y y t r e 8 5 7 5 8 8 8 e 5 i a l c D m l.m ",
"$ $ $ # # # @ @ @ @ + + + + + + @ @ @ # # $ $ $ # : : # $ @ 7 # & 2 O X # o $ o @ @ @ @ @ @ $ @ @ @ # @ # # : : - - : 1 < < > 1 ",
"..H c a r 3 1 1 3 1 1 1 6 6 6 7 7 7 7 7 7 7 r 7 l l c H H H q.5 f z.N.C.n. .0. .q.q.q.q.q./ / / c x c x l x c z D v S D v v c c ",
"r r u u e u u u u e u u 7 i i l l d d a a d d d c r e h i q.l.8 y a.4.X. .@. .~ ..../ S z z S d x c c c c c m b v D H S ~ z z ~ ",
"c h h z d z d d u u r u u 7 7 i 7 i i i i i d i 8 2 8 >.v z.w.# y Z d 4 5 r L 7 d i s s i 7 7 7 t w e p r y i i d z z z 7 L z 7 ",
"f a g r r r e r a a a a a i y t y y i y s y a a h r 8 h 8 J k., h N.m.A 5 s ! ~ g d d d j j z S c c c h f g d a d d z z ~ z d d ",
"g g f h c c A b g f h h c h c h f h g d d d g g h A J z.J z.s.* j c.4.j L 7 L s d d d s s d j d J H n b b b b b z v j v d d z d ",
"h h h f f g y d g f f y a a f f a g g h g g h c A j A g g A ! * g L y 9 s L L 7 s s s s 7 j L 7 g f a a d g h h v v j j d U L 7 ",
"9 9 9 r r y y y y y r 9 r 8 0 8 r y y h h A A Z v ) 4.X.d.4.7.> 4 j j j L 5 L d j j d s d d d L h g g y r r y y r y s s s s d 7 ",
"h h f g h g f f g g r 9 9 0 t 0 r 0 0 r s j j U V M y.y.0.| x.4 L 9.U Q | Q P ! L U j ~ ~ L ~ ~ ) ! b A j A A b v m Z Z J Z b A ",
"f g y a g a y r y y y y y 9 8 8 0 r 0 r s s s s s r s s s d | * 9 | P I j g s L U U j j U d L ~ v j h h g a d g a d h h h h f g ",
"y y a f h h h h t g f g 0 9 8 8 8 9 r y s s 5 5 r 9 d g ~ L 3.* s M.y.| U U U U d d d d 7 d L d b M c c c c c v g h d h a a y y ",
"c c h A H Z Z b J J 6.6.J n b n d g j n ! ! ! d g s V | | 9.i.* s M.Q U d ^ L 7 V V V D ^ ^ ~ / H m m H M m / / c b c c c h x h ",
"x h d a a i y r 0 r y y r 8 9 r j j j j ~ ~ ~ ~ | j ~ ^ y.n.Z.7 , Z g y 5 d s 7 d a d d z j d ~ s a a s i i a s u u t i a a f f ",
"i i i i d i i y h h h h h h h h j d d s s d d d r 4 s d ~ ! 0.* 8 z.w.Z j j v ~ c d z d d i i 7 z z z d d d i i y y y i t t y p ",
"c a a l c c v v c c c b n J o.X.` M v v j j c j d s / 0.3.r.b.5 e z.w.J h c v D H H D D S D ~ z z ~ c ~ z z z d z z c a x x a x ",
"6 6 3 1 1 1 1 1 w 8 8 y y f f s M v d d z d z d j s a 7 d ~ i.4 & h 8 5 > , & $ $ $ - $ $ @ @ @ o o @ @ # $ $ $ # $ : : > 2 3 3 ",
"$ s i i 7 1 > 5 > < : - - 1 1 1 - $ # o X X X X o . . . @ @ $ - & & & , , 3 , 8 4 8 r y e 8 4 , 4 4 4 4 4 9 9 9 7 4 5 s s 7 r & ",
"7 V.V.0.0.0.0.^ z c z z S q.0.0.w.w.J F F D D D D D / q.0.0.l.u.s.6.a.6.6.+.#.X.%.<.a.a.>.X.J o.o.I ! I Q | | | r.y.| ~  .j / 5 ",
"< z i 7 7 7 7 7 5 3 5 7 u i d d a a f c c M Z X./ q.D S v d s i r r y r y y r r y y 0 y r 0 9 y 9 9 9 s s g j d g L j d ~ ! 0.7 ",
"7 / ~ z ~ i 7 ~ z z z d d d d s a a x a a x f f z d a d d i i i a g g h h j v k n n n V j A v v j k P E 7.1.7.7.~ ~ ~ d ~ ^ i.d ",
"4 0.0.a 7 L U 7 v d d d s r 7 7 u e 8 e w e 9 e e e r 8 e r r r r 8 9 8 8 8 8 8 9 r r r r r 5 4 8 9 9 9 r 9 9 5 s s r 5 d 7 ~ 5 ",
"4 0. .d d s 7 L a s s s s r 7 r e 8 t y g h v b v c z s a s d d A v c h h h j h c v v v V v j d j g j j v U V j U s d d ^ d ~ L ",
"4  .^ ~ U 7 7 d 7 s 7 s s s y r y y y r r t r y e r i y s d d h y s y s d h h j c v j D v j d a d j h j U / ) |  .~ ~ U ! ~ / 7 ",
"4 b.n.P L ! ! s L d d d d d s s y y y t t g h h j j h j d d s y y y y r r y a g s s y s s s s r s i i s s s d d s j j j ^  .b.d ",
"5 v.7.| j T k d g h d d s d d d g f f y g f g y y a g s a y y s d y i s d d s s d d h h j v d v h v v M v v M m d v v h m j ) d ",
"*  .%.v s i d d d y s s s s s s f g g h f b b h h c v v v g d d r r e r 7 u 7 5 7 r r r 7 7 5 5 r y i s i s i d v  .%.m t. .m.%.",
"4 v.u.c Z d j H c c h h d c v c h h f f b j J k v b M v c d d d V v v v v v v v S v v v v z d d d z c c v c c c d v v d c h X.A ",
"7 n.l.d z.v c v c h c f d c h c b h b v v J #.J ..) / S v c v c i r r i s a a i a a d d a s s i i i i d i i y i i s y r c g b g ",
"e K F w w.a i f a t t t y t i a x a a a f c b b S S S D v z z z j v z v v v v v j v v v v z j v v c D D c c c z v v c A j.w.N.+.",
"w w.K x M x f b f x f f f x x c c c c c b v M M S ~ D z z d v d c h v z z v z v v v v z v z z z c z z z z z z a t y 9 r A g n a ",
"w J F b b x f x p x f p f f f x F D c c D v F D z z z z z d z D d d a a s d a i l l d a a i d d l z a z c c c c b b b v #.v s.J ",
"; p 2 w 2 w 2 ; ; % ; % % ; % : : % : # - - $ # : < > < : : 1 1 7 5 3 5 5 5 3 5 1 4 1 4 4 > 1 1 < - < 1 6 3 3 3 4 e r t f y X.J ",
"= ; ; ; % ; % % % : : : 2 , 8 8 9 9 9 4 4 9 5 5 4 , 3 < 6 1 7   $ 1 $ - : - ; : : - - : : : 1 : 3 6 < < < - : - = - = - - - < < ",
"w w p p p p f a f h v n J o.t.8.9.2.9.9.x.x.b.b.v.z.m.m.V.z.w.< D l.q.q.0.J q.G / H H S F D M D z l l i i u u u u u u u u i i i ",
"w w w p t t t 0 8 9 t r d d j j j j g j U U v M M H S w.q.w.z X r / M c c z c a i r e e 7 7 w 8 6 3 6 1 6 3 3 3 7 7 e u e e 7 7 ",
"x p x x p y t t f y g y s s s s 9 9 q s s s s s s s u c l q.z X 3 D h i u u y e i i r u e r e 8 e e e u r i a a l a l a l a a i ",
"J b k b h b h h ! ! ! ~ E ~ P P j j j V v v h h z v i v c l.D # e X.M h y y h f h g d a a g f g d a d d h c V M ) ../ ) H M b m ",
"t t f t g y f y s 7 L L U v L ~ j j j j g g d d z d a c c q.c   5 c c a t 9 a y y u y e 8 w 5 w r 8 9 9 r r y 9 d g d s d s s y ",
"t g t f a g a g s d 7 ~ U U P P A v v v v v c c M m M D G w.D X a Z n Z J h h h n n v c k b j v g g d s d g j j d s s s s s s y ",
"j j g k j h h j 7 L L ~ L L ~ d h g s s d d f h c v D a D H G @ a Z n w.+.h b h h h h h h h b j j j j j j j L V V P k j j j j j ",
"g g g g h a s y 7 L 7 L 4 5 7 5 8 8 e 8 e r t y i z i z c v i o y J ) Z b h A h A c v h j v v b V j k j j g j j s j j g g d s s ",
"g h h j j g s g L 5 7 L L L ! ! f a y a y f g f v S c D c c s # 8 A n b A g c g f g g f g f h h v k v j k j j j g s d g g g j g ",
"n b Z Z Z A c v 7 s L d 7 L s s c f h f f x c c d D c c c D z > a X.Z b c g c h c c c c h h c h h j c h d s a y d s s d h h j j ",
"h h j h h g g g L s 7 ~ U L 7 7 8 w w w 8 8 e e e a a z c c d $ r b h t e 3 e 8 y y y i y a t y d d d d s y r e r i y s s d z h ",
"j j j v h h h h h c c F ~ z z z x x l l x a c a e a a c S M l o i q.S D c a c c S v D M H D v v c c z f l l i i e u u i a z z z ",
"r y y t y y a r r e u e 7 7 7 7 w e w p u t u u u d a D ..w.v - > z c D H c c a D c z d d z z i a x l z l l i i i a a l z z c D ",
"g b k f c b b b H b F x z z z z p p p p a x x c i c a c M ..H 1 3 D D q.G D F c c z a i a i i u 7 u e 6 7 7 7 7 7 u u u u l l i ",
", 4 w , 2 8 e 8 2 2 < 6 6 7 7 7 p p x x x x x c c v a i i z d > 7 D z z l i a a u 7 1 1 1 1 < - - = - - - - - - - : < < < < < < "
};
